<?xml version="1.0" encoding="UTF-8"?>
<svg width="107px" height="107px" viewBox="0 0 107 107" version="1.1" xmlns="http://www.w3.org/2000/svg" xmlns:xlink="http://www.w3.org/1999/xlink">
    <!-- Generator: Sketch 49 (51002) - http://www.bohemiancoding.com/sketch -->
    <title>Page 1</title>
    <desc>Created with Sketch.</desc>
    <defs></defs>
    <g id="Page-1" stroke="none" stroke-width="1" fill="none" fill-rule="evenodd">
        <g transform="translate(1.000000, 1.000000)">
            <path d="M52.1016,93.1318 C51.0716,93.1318 50.1716,92.2978 50.1716,91.2668 L50.1716,61.6198 C50.1716,60.5898 51.0716,59.7558 52.1016,59.7558 C53.1316,59.7558 54.0316,60.5898 54.0316,61.6198 L54.0316,91.2668 C54.0316,92.2978 53.1316,93.1318 52.1016,93.1318" id="Fill-1" fill="#757575"></path>
            <path d="M36.9121,96.2222 C36.6701,96.2222 36.4251,96.1752 36.1881,96.0752 C35.2401,95.6752 34.7941,94.5812 35.1941,93.6332 L47.6861,63.9872 C48.0861,63.0382 49.1801,62.5932 50.1291,62.9932 C51.0781,63.3932 51.5221,64.4862 51.1231,65.4352 L38.6311,95.0802 C38.3301,95.7942 37.6401,96.2222 36.9121,96.2222" id="Fill-3" fill="#757575"></path>
            <path d="M67.25,96.2222 C66.522,96.2222 65.832,95.7942 65.531,95.0812 L53.039,65.4352 C52.639,64.4862 53.084,63.3932 54.033,62.9932 C54.981,62.5932 56.075,63.0382 56.476,63.9882 L68.968,93.6332 C69.367,94.5822 68.922,95.6762 67.974,96.0752 C67.737,96.1752 67.492,96.2222 67.25,96.2222" id="Fill-5" fill="#757575"></path>
            <path d="M52.1016,89.0303 C51.0716,89.0303 50.1716,88.1953 50.1716,87.1653 L50.1716,61.6203 C50.1716,60.5903 51.0716,59.7553 52.1016,59.7553 C53.1316,59.7553 54.0316,60.5903 54.0316,61.6203 L54.0316,87.1653 C54.0316,88.1953 53.1316,89.0303 52.1016,89.0303" id="Fill-7" fill="#525252"></path>
            <path d="M39.9033,89.1235 C39.6613,89.1235 39.4163,89.0765 39.1793,88.9765 C38.2313,88.5775 37.7853,87.4835 38.1853,86.5345 L47.6863,63.9875 C48.0863,63.0385 49.1793,62.5925 50.1293,62.9935 C51.0783,63.3935 51.5223,64.4865 51.1233,65.4355 L41.6223,87.9825 C41.3213,88.6955 40.6303,89.1235 39.9033,89.1235" id="Fill-9" fill="#525252"></path>
            <path d="M64.2588,89.1235 C63.5308,89.1235 62.8408,88.6955 62.5398,87.9825 L53.0388,65.4355 C52.6388,64.4865 53.0838,63.3935 54.0328,62.9935 C54.9828,62.5925 56.0748,63.0385 56.4758,63.9875 L65.9768,86.5345 C66.3758,87.4835 65.9308,88.5775 64.9828,88.9765 C64.7458,89.0765 64.5008,89.1235 64.2588,89.1235" id="Fill-11" fill="#525252"></path>
            <path d="M52.0811,16.8696 C70.6171,16.8696 85.6441,31.8966 85.6441,50.4326 C85.6441,68.9696 70.6171,83.9956 52.0811,83.9956 C33.5451,83.9956 18.5181,68.9696 18.5181,50.4326 C18.5181,31.8966 33.5451,16.8696 52.0811,16.8696" id="Fill-13" fill="#979797"></path>
            <path d="M52.0811,22.7432 C67.3731,22.7432 79.7701,35.1402 79.7701,50.4322 C79.7701,65.7252 67.3731,78.1222 52.0811,78.1222 C36.7891,78.1222 24.3921,65.7252 24.3921,50.4322 C24.3921,35.1402 36.7891,22.7432 52.0811,22.7432" id="Fill-15" fill="#ECF0F1"></path>
            <path d="M52.0811,28.6167 C64.1301,28.6167 73.8961,38.3847 73.8961,50.4327 C73.8961,62.4817 64.1301,72.2487 52.0811,72.2487 C40.0331,72.2487 30.2651,62.4817 30.2651,50.4327 C30.2651,38.3847 40.0331,28.6167 52.0811,28.6167" id="Fill-17" fill="#979797"></path>
            <path d="M52.0811,34.4902 C60.8861,34.4902 68.0231,41.6282 68.0231,50.4322 C68.0231,59.2372 60.8861,66.3752 52.0811,66.3752 C43.2761,66.3752 36.1391,59.2372 36.1391,50.4322 C36.1391,41.6282 43.2761,34.4902 52.0811,34.4902" id="Fill-19" fill="#ECF0F1"></path>
            <path d="M52.0811,40.3638 C57.6421,40.3638 62.1501,44.8718 62.1501,50.4328 C62.1501,55.9938 57.6421,60.5018 52.0811,60.5018 C46.5201,60.5018 42.0121,55.9938 42.0121,50.4328 C42.0121,44.8718 46.5201,40.3638 52.0811,40.3638" id="Fill-21" fill="#ADC95C"></path>
            <path d="M52.0811,46.2373 C54.3981,46.2373 56.2761,48.1153 56.2761,50.4323 C56.2761,52.7493 54.3981,54.6283 52.0811,54.6283 C49.7641,54.6283 47.8861,52.7493 47.8861,50.4323 C47.8861,48.1153 49.7641,46.2373 52.0811,46.2373" id="Fill-23" fill="#4CA747"></path>
            <path d="M51.958,49.6313 C51.801,49.6313 51.643,49.6803 51.508,49.7833 L24.841,70.0403 C25.132,70.4443 25.431,70.8413 25.739,71.2313 L52.41,50.9713 C52.738,50.7213 52.802,50.2543 52.553,49.9253 C52.406,49.7333 52.184,49.6313 51.958,49.6313" id="Fill-25" fill="#757575"></path>
            <polygon id="Fill-27" fill="#4CA747" points="33.4707 36.856 18.7717 25.689 9.8057 28.245 15.8837 32.862 19.0877 31.901 17.1037 33.789 20.9367 36.701 23.3877 36.104 22.0147 37.52 24.5047 39.411"></polygon>
            <path d="M51.958,51.1782 C51.801,51.1782 51.643,51.1292 51.508,51.0262 L18.546,25.9872 C18.218,25.7372 18.154,25.2702 18.403,24.9412 C18.652,24.6142 19.12,24.5502 19.448,24.7992 L52.41,49.8382 C52.738,50.0882 52.802,50.5552 52.553,50.8842 C52.406,51.0762 52.184,51.1782 51.958,51.1782" id="Fill-29" fill="#292929"></path>
            <polygon id="Fill-31" fill="#ADC95C" points="33.7539 27.2363 30.9329 25.0933 29.7909 28.9083 29.8489 24.2703 24.7689 20.4103 22.9499 24.6193 23.7319 19.6233 19.0549 16.0693 18.9969 25.3923 33.6959 36.5593"></polygon>
            <path d="M104.5,52.5 C104.5,81.219 81.219,104.5 52.5,104.5 C23.781,104.5 0.5,81.219 0.5,52.5 C0.5,23.781 23.781,0.5 52.5,0.5 C81.219,0.5 104.5,23.781 104.5,52.5 Z" id="Stroke-33" stroke="#CCDE99" stroke-width="3" stroke-linecap="round" stroke-dasharray="30,60,67"></path>
        </g>
    </g>
</svg>