<?xml version="1.0" encoding="UTF-8"?>
<svg width="107px" height="107px" viewBox="0 0 107 107" version="1.1" xmlns="http://www.w3.org/2000/svg" xmlns:xlink="http://www.w3.org/1999/xlink">
    <!-- Generator: Sketch 49 (51002) - http://www.bohemiancoding.com/sketch -->
    <title>Page 1</title>
    <desc>Created with Sketch.</desc>
    <defs></defs>
    <g id="Page-1" stroke="none" stroke-width="1" fill="none" fill-rule="evenodd">
        <g transform="translate(1.000000, 1.000000)">
            <path d="M103.9766,48.8564 C103.3726,41.1904 101.1036,33.9934 97.5346,27.6234 C94.4676,22.1494 90.4406,17.2884 85.6806,13.2664 L66.0756,32.8714 L93.0296,59.8264 L103.9786,48.8774 C103.9776,48.8704 103.9766,48.8634 103.9766,48.8564" id="Fill-1" fill="#ADC95C"></path>
            <path d="M79.1807,45.9775 L93.0177,59.8145 L103.9767,48.8565 C103.3717,41.1905 101.1037,33.9935 97.5347,27.6235 L88.7537,36.4045 L79.1807,45.9775 Z" id="Fill-3" fill="#4CA747"></path>
            <path d="M18.6006,13.2661 C13.8396,17.2881 9.8136,22.1501 6.7466,27.6231 C3.1776,33.9941 0.9096,41.1901 0.3046,48.8561 L11.2636,59.8151 L20.4036,50.6751 L25.1006,45.9771 L38.2056,32.8721 L18.6006,13.2661 Z" id="Fill-5" fill="#CCDE99"></path>
            <path d="M0.3047,48.8564 L11.2637,59.8144 L20.4037,50.6754 L25.1007,45.9774 L6.7467,27.6234 C3.1777,33.9934 0.9087,41.1904 0.3047,48.8564" id="Fill-7" fill="#ADC95C"></path>
            <polygon id="Fill-9" fill="#A5A5A5" points="41.083 62.3159 64.063 39.3359 86.613 61.8849 63.633 84.8659"></polygon>
            <path d="M26.9355,82.209 C28.5155,83.789 31.1005,83.789 32.6805,82.209 L47.1875,67.703 C48.7675,66.123 48.7675,63.537 47.1875,61.957 C45.6075,60.377 43.0215,60.377 41.4425,61.957 L26.9355,76.464 C25.3555,78.043 25.3555,80.629 26.9355,82.209" id="Fill-11" fill="#A5A5A5"></path>
            <path d="M30.3828,91.689 C32.1198,93.427 34.9648,93.427 36.7018,91.689 L56.8108,71.581 C58.5488,69.842 58.5488,66.999 56.8108,65.261 C55.0718,63.523 52.2288,63.523 50.4908,65.261 L30.3828,85.369 C28.6448,87.107 28.6448,89.951 30.3828,91.689" id="Fill-13" fill="#A5A5A5"></path>
            <path d="M38.8564,95.5669 C40.2784,96.9889 42.6054,96.9889 44.0274,95.5669 L61.2634,78.3309 C62.6854,76.9089 62.6854,74.5819 61.2634,73.1599 C59.8404,71.7379 57.5144,71.7379 56.0924,73.1599 L38.8564,90.3959 C37.4344,91.8179 37.4344,94.1449 38.8564,95.5669" id="Fill-15" fill="#A5A5A5"></path>
            <path d="M47.4746,97.0034 C48.5796,98.1094 50.3896,98.1094 51.4956,97.0034 L66.2896,82.2094 C67.3966,81.1034 67.3966,79.2934 66.2896,78.1874 C65.1846,77.0814 63.3736,77.0814 62.2686,78.1874 L47.4746,92.9814 C46.3686,94.0874 46.3686,95.8974 47.4746,97.0034" id="Fill-17" fill="#A5A5A5"></path>
            <polygon id="Fill-19" fill="#ECF0F1" points="62.2686 39.1201 67.2956 34.0931 91.9526 58.7491 86.9246 63.7761"></polygon>
            <polygon id="Fill-21" fill="#BDC3C7" points="74.1533 51.0039 79.1793 45.9769 91.9463 58.7429 86.9193 63.7709"></polygon>
            <path d="M93.6826,42.3813 C95.9796,42.3813 97.8416,44.2433 97.8416,46.5403 C97.8416,48.8373 95.9796,50.6993 93.6826,50.6993 C91.3856,50.6993 89.5236,48.8373 89.5236,46.5403 C89.5236,44.2433 91.3856,42.3813 93.6826,42.3813" id="Fill-23" fill="#ECF0F1"></path>
            <polygon id="Fill-25" fill="#DCDCDC" points="40.6484 84.8662 17.6684 61.8852 40.2174 39.3362 63.1984 62.3162"></polygon>
            <path d="M77.3457,82.209 C75.7657,83.789 73.1807,83.789 71.6007,82.209 L57.0937,67.703 C55.5137,66.123 55.5137,63.537 57.0937,61.957 C58.6737,60.377 61.2597,60.377 62.8387,61.957 L77.3457,76.464 C78.9257,78.043 78.9257,80.629 77.3457,82.209" id="Fill-27" fill="#DCDCDC"></path>
            <path d="M73.8984,91.689 C72.1604,93.427 69.3164,93.427 67.5794,91.689 L47.4704,71.581 C45.7324,69.842 45.7324,66.999 47.4704,65.261 C49.2094,63.523 52.0524,63.523 53.7904,65.261 L73.8984,85.369 C75.6364,87.107 75.6364,89.951 73.8984,91.689" id="Fill-29" fill="#DCDCDC"></path>
            <path d="M65.4248,95.5669 C64.0028,96.9889 61.6758,96.9889 60.2538,95.5669 L43.0178,78.3309 C41.5958,76.9089 41.5958,74.5819 43.0178,73.1599 C44.4398,71.7379 46.7668,71.7379 48.1888,73.1599 L65.4248,90.3959 C66.8468,91.8179 66.8468,94.1449 65.4248,95.5669" id="Fill-31" fill="#DCDCDC"></path>
            <path d="M56.8066,97.0034 C55.7016,98.1094 53.8906,98.1094 52.7856,97.0034 L37.9916,82.2094 C36.8846,81.1034 36.8846,79.2934 37.9916,78.1874 C39.0966,77.0814 40.9066,77.0814 42.0126,78.1874 L56.8066,92.9814 C57.9126,94.0874 57.9126,95.8974 56.8066,97.0034" id="Fill-33" fill="#DCDCDC"></path>
            <polygon id="Fill-35" fill="#ECF0F1" points="17.3574 63.7764 12.3304 58.7494 36.9864 34.0934 42.0134 39.1204"></polygon>
            <polygon id="Fill-37" fill="#BDC3C7" points="17.3633 63.771 12.3363 58.744 25.1023 45.978 30.1293 51.005"></polygon>
            <polygon id="Fill-39" fill="#C6C6C6" points="52.5732 51.6914 56.6352 46.7634 52.7202 42.8704 41.0072 40.1254"></polygon>
            <path d="M74.4258,76.1597 C76.1088,76.1597 77.4728,77.5237 77.4728,79.2067 C77.4728,80.8887 76.1088,82.2537 74.4258,82.2537 C72.7428,82.2537 71.3788,80.8887 71.3788,79.2067 C71.3788,77.5237 72.7428,76.1597 74.4258,76.1597" id="Fill-41" fill="#ECF0F1"></path>
            <path d="M70.9785,85.6392 C72.6615,85.6392 74.0255,87.0032 74.0255,88.6862 C74.0255,90.3692 72.6615,91.7332 70.9785,91.7332 C69.2955,91.7332 67.9315,90.3692 67.9315,88.6862 C67.9315,87.0032 69.2955,85.6392 70.9785,85.6392" id="Fill-43" fill="#ECF0F1"></path>
            <path d="M62.6475,90.0674 C64.1065,90.0674 65.2885,91.2494 65.2885,92.7084 C65.2885,94.1664 64.1065,95.3484 62.6475,95.3484 C61.1895,95.3484 60.0065,94.1664 60.0065,92.7084 C60.0065,91.2494 61.1895,90.0674 62.6475,90.0674" id="Fill-45" fill="#ECF0F1"></path>
            <path d="M54.6045,92.6875 C55.7265,92.6875 56.6355,93.5975 56.6355,94.7185 C56.6355,95.8405 55.7265,96.7495 54.6045,96.7495 C53.4825,96.7495 52.5735,95.8405 52.5735,94.7185 C52.5735,93.5975 53.4825,92.6875 54.6045,92.6875" id="Fill-47" fill="#ECF0F1"></path>
            <path d="M10.5986,42.3813 C12.8956,42.3813 14.7576,44.2433 14.7576,46.5403 C14.7576,48.8373 12.8956,50.6993 10.5986,50.6993 C8.3016,50.6993 6.4396,48.8373 6.4396,46.5403 C6.4396,44.2433 8.3016,42.3813 10.5986,42.3813" id="Fill-49" fill="#ECF0F1"></path>
            <path d="M47.3984,59.8027 C43.5534,63.8517 37.0614,60.7717 37.0614,60.7717 L51.5604,42.8697 L63.2734,40.1247 C63.2744,40.1247 51.2444,55.7537 47.3984,59.8027" id="Fill-51" fill="#A5A5A5"></path>
            <path d="M59.3867,53.1538 C59.3867,53.1538 66.2247,58.9308 74.1527,51.0038 L81.5887,58.4408 C81.5887,58.4408 77.4727,74.6848 71.3777,68.9598 C66.4077,64.2908 57.6357,54.8738 57.6357,54.8738 L59.3867,53.1538 Z" id="Fill-53" fill="#8E8E8E"></path>
            <path d="M104.5,52.5 C104.5,81.219 81.219,104.5 52.5,104.5 C23.781,104.5 0.5,81.219 0.5,52.5 C0.5,23.781 23.781,0.5 52.5,0.5 C81.219,0.5 104.5,23.781 104.5,52.5 Z" id="Stroke-55" stroke="#CCDE99" stroke-width="3" stroke-linecap="round" stroke-dasharray="60,30,12"></path>
        </g>
    </g>
</svg>