<?xml version="1.0" encoding="UTF-8"?>
<svg width="103px" height="107px" viewBox="0 0 103 107" version="1.1" xmlns="http://www.w3.org/2000/svg" xmlns:xlink="http://www.w3.org/1999/xlink">
    <!-- Generator: Sketch 49 (51002) - http://www.bohemiancoding.com/sketch -->
    <title>Page 1</title>
    <desc>Created with Sketch.</desc>
    <defs></defs>
    <g id="Page-1" stroke="none" stroke-width="1" fill="none" fill-rule="evenodd">
        <g transform="translate(-3.000000, 1.000000)">
            <g id="Group-5" transform="translate(3.000000, 62.000000)" fill="#959595">
                <path d="M79.2236,32.4199 C89.7076,24.9709 97.3106,13.7329 100.0366,0.7019 C93.3016,1.6649 87.3146,6.2349 84.8736,13.0909 C84.4396,14.3129 84.1376,15.5499 83.9616,16.7859 C78.3266,15.5319 72.5096,18.6439 70.5246,24.2219 C70.3736,24.6429 70.2526,25.0659 70.1546,25.4909 C69.4546,25.0309 68.6926,24.6449 67.8686,24.3519 C62.3576,22.3899 56.3006,25.2679 54.3396,30.7789 C53.8056,32.2799 53.6316,33.8219 53.7716,35.3109 C63.0886,35.9469 72.1336,37.4569 79.2236,32.4199" id="Fill-1"></path>
                <path d="M32.4053,19.2471 C29.1673,14.8471 23.0413,13.8311 18.5643,16.8861 C18.1423,15.7981 17.5753,14.7471 16.8503,13.7631 C13.1003,8.6661 6.4413,6.9841 0.8473,9.3071 C4.1283,17.5021 9.4273,24.6701 16.1383,30.1871 C19.5133,32.9621 23.1153,34.3441 26.9613,34.9881 C28.1153,34.6681 29.2313,34.1391 30.2523,33.3871 C34.7523,30.0771 35.7163,23.7461 32.4053,19.2471" id="Fill-3"></path>
            </g>
            <polygon id="Fill-6" fill="#ADC95C" points="19.1777 36.4785 79.1257 23.9995 31.9567 48.2895"></polygon>
            <polygon id="Fill-7" fill="#4CA747" points="32 59.9072 32 48.2892 79.126 24.0002"></polygon>
            <polygon id="Fill-8" fill="#ADC95C" points="54.0303 66.2969 39.9913 53.8179 79.1263 23.9999"></polygon>
            <g id="Group-13">
                <path d="M74.293,90.2656 C73.149,83.3466 67.142,78.0696 59.898,78.0696 C55.86,78.0696 52.206,79.7096 49.564,82.3606 C46.7,79.5166 42.757,77.7586 38.403,77.7586 C31.759,77.7586 26.074,81.8506 23.723,87.6516 C21.524,88.2036 19.84,90.4436 19.497,92.7176 C28.452,100.0226 39.886,103.9996 52.344,103.9996 C63.554,103.9996 73.935,100.4526 82.427,94.4196 C80.428,92.0816 77.545,90.5226 74.293,90.2656" id="Fill-9" fill="#DDDDDD"></path>
                <path d="M104.5,52.5 C104.5,81.219 81.219,104.5 52.5,104.5 C23.781,104.5 0.5,81.219 0.5,52.5 C0.5,23.781 23.781,0.5 52.5,0.5 C81.219,0.5 104.5,23.781 104.5,52.5 Z" id="Stroke-11" stroke="#CCDE99" stroke-width="3" stroke-linecap="round" stroke-dasharray="80,50,12"></path>
            </g>
        </g>
    </g>
</svg>