<?xml version="1.0" encoding="UTF-8"?>
<svg width="97px" height="107px" viewBox="0 0 97 107" version="1.1" xmlns="http://www.w3.org/2000/svg" xmlns:xlink="http://www.w3.org/1999/xlink">
    <!-- Generator: Sketch 49 (51002) - http://www.bohemiancoding.com/sketch -->
    <title>Page 1</title>
    <desc>Created with Sketch.</desc>
    <defs>
        <polygon id="path-1" points="0 107 107 107 107 0 0 0"></polygon>
    </defs>
    <g id="Page-1" stroke="none" stroke-width="1" fill="none" fill-rule="evenodd">
        <g transform="translate(-10.000000, 0.000000)">
            <path d="M53.5,6.375 L53.5,7.594 C54.565,7.594 55.43,8.458 55.43,9.523 C55.43,10.589 54.565,11.453 53.5,11.453 L53.5,19.172 C55.064,19.172 56.344,17.892 56.344,16.328 L56.344,9.219 C56.344,7.655 55.064,6.375 53.5,6.375" id="Fill-1" fill="#7F8C8D"></path>
            <path d="M51.5703,9.5234 C51.5703,8.4574 52.4343,7.5934 53.5003,7.5934 L53.5003,6.3754 C51.9363,6.3754 50.6563,7.6544 50.6563,9.2184 L50.6563,16.3284 C50.6563,17.8924 51.9363,19.1714 53.5003,19.1714 L53.5003,11.4534 C52.4343,11.4534 51.5703,10.5894 51.5703,9.5234" id="Fill-3" fill="#979797"></path>
            <path d="M80.9219,82.9531 C80.9219,84.0701 80.0079,84.9841 78.8909,84.9841 L28.1089,84.9841 C26.9919,84.9841 26.0779,84.0701 26.0779,82.9531 L26.0779,18.3591 C26.0779,17.2421 26.9919,16.3281 28.1089,16.3281 L78.8909,16.3281 C80.0079,16.3281 80.9219,17.2421 80.9219,18.3591 L80.9219,82.9531 Z" id="Fill-5" fill="#979797"></path>
            <path d="M63.25,17.5469 C63.25,18.8879 62.153,19.9849 60.812,19.9849 L46.188,19.9849 C44.847,19.9849 43.75,18.8879 43.75,17.5469 L43.75,16.7349 C43.75,15.3939 44.847,14.2969 46.188,14.2969 L60.812,14.2969 C62.153,14.2969 63.25,15.3939 63.25,16.7349 L63.25,17.5469 Z" id="Fill-7" fill="#BABABA"></path>
            <path d="M31.1563,81.7344 C30.5973,81.7344 30.1403,81.2774 30.1403,80.7184 L30.1403,20.3904 C30.1403,19.8324 30.5973,19.3754 31.1563,19.3754 L75.8443,19.3754 C76.4023,19.3754 76.8593,19.8324 76.8593,20.3904 L76.8593,80.7184 C76.8593,81.2774 76.4023,81.7344 75.8443,81.7344 L31.1563,81.7344 Z" id="Fill-9" fill="#ECF0F1"></path>
            <mask id="mask-2" fill="white">
                <use xlink:href="#path-1"></use>
            </mask>
            <g id="Clip-12"></g>
            <polygon id="Fill-11" fill="#757575" mask="url(#mask-2)" points="43.75 19.985 63.25 19.985 63.25 17.141 43.75 17.141"></polygon>
            <path d="M37.656,35.828 L44.359,35.828 L44.359,29.125 L37.656,29.125 L37.656,35.828 Z M45.578,36.437 C45.578,36.774 45.305,37.047 44.969,37.047 L37.047,37.047 C36.71,37.047 36.438,36.774 36.438,36.437 L36.438,28.516 C36.438,28.179 36.71,27.906 37.047,27.906 L44.969,27.906 C45.305,27.906 45.578,28.179 45.578,28.516 L45.578,36.437 Z" id="Fill-13" fill="#ADC95C" mask="url(#mask-2)"></path>
            <path d="M37.656,48.016 L44.359,48.016 L44.359,41.313 L37.656,41.313 L37.656,48.016 Z M45.578,48.625 C45.578,48.961 45.305,49.234 44.969,49.234 L37.047,49.234 C36.71,49.234 36.438,48.961 36.438,48.625 L36.438,40.703 C36.438,40.367 36.71,40.094 37.047,40.094 L44.969,40.094 C45.305,40.094 45.578,40.367 45.578,40.703 L45.578,48.625 Z" id="Fill-14" fill="#ADC95C" mask="url(#mask-2)"></path>
            <path d="M37.656,60.203 L44.359,60.203 L44.359,53.5 L37.656,53.5 L37.656,60.203 Z M45.578,60.812 C45.578,61.149 45.305,61.422 44.969,61.422 L37.047,61.422 C36.71,61.422 36.438,61.149 36.438,60.812 L36.438,52.891 C36.438,52.554 36.71,52.281 37.047,52.281 L44.969,52.281 C45.305,52.281 45.578,52.554 45.578,52.891 L45.578,60.812 Z" id="Fill-15" fill="#ADC95C" mask="url(#mask-2)"></path>
            <path d="M37.656,72.391 L44.359,72.391 L44.359,65.688 L37.656,65.688 L37.656,72.391 Z M45.578,73 C45.578,73.336 45.305,73.609 44.969,73.609 L37.047,73.609 C36.71,73.609 36.438,73.336 36.438,73 L36.438,65.078 C36.438,64.742 36.71,64.469 37.047,64.469 L44.969,64.469 C45.305,64.469 45.578,64.742 45.578,65.078 L45.578,73 Z" id="Fill-16" fill="#ADC95C" mask="url(#mask-2)"></path>
            <path d="M70.5625,29.5312 L50.4535,29.5312 C50.0045,29.5312 49.6405,29.1672 49.6405,28.7192 C49.6405,28.2702 50.0045,27.9062 50.4535,27.9062 L70.5625,27.9062 C71.0105,27.9062 71.3745,28.2702 71.3745,28.7192 C71.3745,29.1672 71.0105,29.5312 70.5625,29.5312" id="Fill-17" fill="#BABABA" mask="url(#mask-2)"></path>
            <path d="M71.5781,33.5937 L50.4531,33.5937 C50.0041,33.5937 49.6411,33.2297 49.6411,32.7817 C49.6411,32.3327 50.0041,31.9687 50.4531,31.9687 L71.5781,31.9687 C72.0261,31.9687 72.3901,32.3327 72.3901,32.7817 C72.3901,33.2297 72.0261,33.5937 71.5781,33.5937" id="Fill-18" fill="#BABABA" mask="url(#mask-2)"></path>
            <path d="M71.5781,41.7187 L50.4531,41.7187 C50.0041,41.7187 49.6411,41.3547 49.6411,40.9067 C49.6411,40.4577 50.0041,40.0937 50.4531,40.0937 L71.5781,40.0937 C72.0261,40.0937 72.3901,40.4577 72.3901,40.9067 C72.3901,41.3547 72.0261,41.7187 71.5781,41.7187" id="Fill-19" fill="#BABABA" mask="url(#mask-2)"></path>
            <path d="M61.0156,45.7812 L50.4526,45.7812 C50.0046,45.7812 49.6406,45.4172 49.6406,44.9692 C49.6406,44.5202 50.0046,44.1562 50.4526,44.1562 L61.0156,44.1562 C61.4636,44.1562 61.8276,44.5202 61.8276,44.9692 C61.8276,45.4172 61.4636,45.7812 61.0156,45.7812" id="Fill-20" fill="#BABABA" mask="url(#mask-2)"></path>
            <path d="M70.5625,49.6406 L50.4535,49.6406 C50.0045,49.6406 49.6405,49.2766 49.6405,48.8286 C49.6405,48.3796 50.0045,48.0156 50.4535,48.0156 L70.5625,48.0156 C71.0105,48.0156 71.3745,48.3796 71.3745,48.8286 C71.3745,49.2766 71.0105,49.6406 70.5625,49.6406" id="Fill-21" fill="#BABABA" mask="url(#mask-2)"></path>
            <path d="M67.9219,54.1094 L50.4529,54.1094 C50.0049,54.1094 49.6409,53.7454 49.6409,53.2974 C49.6409,52.8484 50.0049,52.4844 50.4529,52.4844 L67.9219,52.4844 C68.3699,52.4844 68.7339,52.8484 68.7339,53.2974 C68.7339,53.7454 68.3699,54.1094 67.9219,54.1094" id="Fill-22" fill="#BABABA" mask="url(#mask-2)"></path>
            <path d="M62.0313,57.9687 L50.4533,57.9687 C50.0043,57.9687 49.6403,57.6047 49.6403,57.1567 C49.6403,56.7077 50.0043,56.3437 50.4533,56.3437 L62.0313,56.3437 C62.4793,56.3437 62.8433,56.7077 62.8433,57.1567 C62.8433,57.6047 62.4793,57.9687 62.0313,57.9687" id="Fill-23" fill="#BABABA" mask="url(#mask-2)"></path>
            <path d="M71.5781,61.8281 L50.4531,61.8281 C50.0041,61.8281 49.6411,61.4641 49.6411,61.0161 C49.6411,60.5671 50.0041,60.2031 50.4531,60.2031 L71.5781,60.2031 C72.0261,60.2031 72.3901,60.5671 72.3901,61.0161 C72.3901,61.4641 72.0261,61.8281 71.5781,61.8281" id="Fill-24" fill="#BABABA" mask="url(#mask-2)"></path>
            <path d="M57.7656,65.8906 L50.4536,65.8906 C50.0046,65.8906 49.6406,65.5266 49.6406,65.0786 C49.6406,64.6296 50.0046,64.2656 50.4536,64.2656 L57.7656,64.2656 C58.2136,64.2656 58.5776,64.6296 58.5776,65.0786 C58.5776,65.5266 58.2136,65.8906 57.7656,65.8906" id="Fill-25" fill="#BABABA" mask="url(#mask-2)"></path>
            <path d="M60.4063,69.9531 L50.4533,69.9531 C50.0043,69.9531 49.6403,69.5891 49.6403,69.1411 C49.6403,68.6921 50.0043,68.3281 50.4533,68.3281 L60.4063,68.3281 C60.8543,68.3281 61.2183,68.6921 61.2183,69.1411 C61.2183,69.5891 60.8543,69.9531 60.4063,69.9531" id="Fill-26" fill="#BABABA" mask="url(#mask-2)"></path>
            <path d="M70.5625,74.0156 L50.4535,74.0156 C50.0045,74.0156 49.6405,73.6516 49.6405,73.2036 C49.6405,72.7546 50.0045,72.3906 50.4535,72.3906 L70.5625,72.3906 C71.0105,72.3906 71.3745,72.7546 71.3745,73.2036 C71.3745,73.6516 71.0105,74.0156 70.5625,74.0156" id="Fill-27" fill="#BABABA" mask="url(#mask-2)"></path>
            <path d="M40.0938,46.4922 C39.8888,46.4922 39.6838,46.4152 39.5268,46.2612 L34.8548,41.7052 C34.5328,41.3922 34.5268,40.8782 34.8408,40.5562 C35.1538,40.2352 35.6678,40.2292 35.9888,40.5422 L40.1078,44.5582 L47.8688,37.3652 C48.1988,37.0602 48.7128,37.0792 49.0178,37.4092 C49.3228,37.7382 49.3028,38.2512 48.9738,38.5562 L40.6458,46.2752 C40.4898,46.4202 40.2918,46.4922 40.0938,46.4922" id="Fill-28" fill="#4CA747" mask="url(#mask-2)"></path>
            <path d="M21.8584,72.8345 L26.0784,64.0625 L26.0784,55.3285 C26.0784,55.3285 25.6044,51.8755 28.7184,51.8755 C31.8334,51.8755 31.1564,54.9215 31.1564,54.9215 L31.2184,66.2965 C31.2184,66.2965 39.5514,71.9845 34.2264,84.9845 L46.5934,84.9845 L39.7544,92.0935 L23.3014,92.0935 L21.8584,72.8345 Z" id="Fill-29" fill="#BABABA" mask="url(#mask-2)"></path>
            <polygon id="Fill-30" fill="#ECF0F1" mask="url(#mask-2)" points="21.812 94.125 41.921 94.125 41.921 90.672 21.812 90.672"></polygon>
            <polygon id="Fill-31" fill="#BDC3C7" mask="url(#mask-2)" points="31.766 94.125 41.922 94.125 41.922 90.672 31.766 90.672"></polygon>
            <path d="M43.75,104.5835 L43.75,94.1255 L21.043,94.1255 C27.524,99.3095 35.272,102.9755 43.75,104.5835" id="Fill-32" fill="#757575" mask="url(#mask-2)"></path>
            <path d="M31.7656,100.7505 C35.5386,102.4885 39.5556,103.7875 43.7496,104.5835 L43.7496,94.1255 L31.7656,94.1255 L31.7656,100.7505 Z" id="Fill-33" fill="#525252" mask="url(#mask-2)"></path>
            <polygon id="Fill-34" fill="#757575" mask="url(#mask-2)" points="34.2261 84.9844 41.9221 89.8404 46.5941 84.9844"></polygon>
            <path d="M28.6172,52.8906 C29.6272,52.8906 30.4452,53.7086 30.4452,54.7186 C30.4452,55.7286 29.6272,56.5466 28.6172,56.5466 C27.6072,56.5466 26.7892,55.7286 26.7892,54.7186 C26.7892,53.7086 27.6072,52.8906 28.6172,52.8906" id="Fill-35" fill="#ECF0F1" mask="url(#mask-2)"></path>
            <path d="M105.5,53.5 C105.5,82.219 82.219,105.5 53.5,105.5 C24.781,105.5 1.5,82.219 1.5,53.5 C1.5,24.781 24.781,1.5 53.5,1.5 C82.219,1.5 105.5,24.781 105.5,53.5 Z" id="Stroke-36" stroke="#CCDE99" stroke-width="3" stroke-linecap="round" stroke-dasharray="87,12,10" mask="url(#mask-2)"></path>
        </g>
    </g>
</svg>