<svg width="231px" height="42px" viewBox="0 0 231 42" version="1.1" xmlns="http://www.w3.org/2000/svg" xmlns:xlink="http://www.w3.org/1999/xlink">
    <g id="Page-1" stroke="none" stroke-width="1" fill="none" fill-rule="evenodd">
        <g id="SMGlearning.Logo.CMYK">
            <path d="M9.723,13.747 C8.089,13.747 7.361,14.366 7.361,15.756 C7.361,16.906 8.75,17.34 11.017,17.951 C13.244,18.554 15.933,19.279 17.396,21.388 L17.396,13.069 L13.951,16.141 L13.725,15.897 C12.386,14.45 11.077,13.747 9.723,13.747 Z M58.292,13.261 C56.039,13.261 53.627,14.992 53.627,17.569 C53.627,20.175 56.039,21.925 58.292,21.925 C60.544,21.925 62.958,20.175 62.958,17.569 C62.958,14.992 60.544,13.261 58.292,13.261 Z M58.691,40.935 C53.447,40.935 50.078,39.595 47.062,36.308 L46.845,36.072 L50.764,32.003 L51.009,32.255 C53.4,34.738 54.763,35.562 58.115,35.562 C60.199,35.562 63.134,34.308 63.134,31.519 C63.134,28.57 61.026,26.81 57.494,26.81 C55.857,26.81 54.081,27.345 52.215,28.404 L51.486,28.817 L52.569,25.156 C50.689,24.322 49.407,23.386 48.582,22.224 L48.582,32.236 L42.281,32.632 L42.281,16.861 C42.347,15.813 42.169,15.09 41.735,14.628 C41.285,14.147 40.524,13.925 39.343,13.925 C37.308,13.925 36.139,15.446 36.139,18.103 L36.139,32.236 L29.837,32.632 L29.837,16.861 C29.904,15.813 29.726,15.09 29.292,14.626 C28.843,14.147 28.082,13.925 26.901,13.925 C24.865,13.925 23.697,15.446 23.697,18.103 L23.697,32.236 L17.396,32.632 L17.396,29.087 C15.612,31.917 11.993,32.963 8.928,32.963 C5.476,32.963 2.218,31.562 0.211,29.213 L0.007,28.974 L3.976,25.056 L4.213,25.308 C5.742,26.931 7.147,27.591 9.06,27.591 C10.712,27.591 11.864,26.558 11.864,25.63 C11.864,24.312 10.431,23.823 8.091,23.134 C4.819,22.172 0.75,20.974 0.75,15.622 C0.75,10.643 5.195,8.375 9.325,8.375 C12.432,8.375 15.27,9.526 17.396,11.632 L17.396,9.114 L23.387,8.517 L23.387,10.897 C25.009,9.191 26.374,8.375 28.805,8.375 C31.016,8.375 33.022,9.315 34.627,11.101 C36.45,9.37 38.121,8.375 40.938,8.375 C43.801,8.375 47.279,9.762 48.289,13.574 C49.951,10.384 53.613,8.375 57.937,8.375 C59.584,8.375 61.008,8.483 62.049,8.562 C62.63,8.606 63.089,8.642 63.384,8.642 C65.269,8.642 68.162,8.084 71.121,7.151 L71.687,6.974 L70.384,12.597 L67.388,12.597 C68.676,14.224 69.258,15.837 69.258,17.747 C69.258,20.628 67.688,23.008 64.923,24.365 C68.064,26.07 69.656,28.546 69.656,31.74 C69.656,37.711 64.007,40.935 58.691,40.935 Z" id="Fill-1" fill="#ffffff"></path>
            <polygon id="Fill-2" fill="#ADC95C" points="77.545 32.237 80.505 32.237 80.505 0.937 77.545 0.937"></polygon>
            <path d="M104.912,19.083 C103.981,13.626 99.54,11.173 95.86,11.173 C92.222,11.173 87.696,13.626 86.851,19.083 L104.912,19.083 Z M86.851,21.747 C87.062,26.274 91.292,30.123 95.817,30.123 C100.047,30.039 103.05,27.542 104.108,24.666 L107.238,24.666 C105.63,29.277 101.189,32.788 95.86,32.788 C89.388,32.788 83.805,27.542 83.805,20.69 C83.805,14.134 89.092,8.636 95.817,8.509 C100.893,8.551 104.488,11.554 106.138,14.43 C107.703,16.926 108.042,19.506 107.915,21.747 L86.851,21.747 Z" id="Fill-3" fill="#ADC95C"></path>
            <path d="M121.79,30.123 C126.781,30.123 131.052,26.105 131.052,20.69 C131.052,15.614 127.119,11.173 121.79,11.173 C116.714,11.173 112.315,14.853 112.315,20.732 C112.315,25.893 116.122,30.123 121.79,30.123 Z M133.844,32.238 L130.883,32.238 L130.883,28.177 L130.799,28.177 C128.261,31.984 124.201,32.788 121.79,32.788 C114.514,32.788 109.354,27.247 109.354,20.605 C109.354,14.43 114.218,8.509 121.79,8.509 C124.285,8.509 128.345,9.312 130.799,13.161 L130.883,13.161 L130.883,9.101 L133.844,9.101 L133.844,32.238 Z" id="Fill-4" fill="#ADC95C"></path>
            <path d="M138.16,9.101 L141.12,9.101 L141.12,12.442 L141.206,12.442 C142.602,9.186 145.223,8.678 147.719,8.509 L147.719,11.639 C145.647,11.808 143.869,12.569 142.728,13.923 C141.714,15.191 141.12,16.841 141.12,18.702 L141.12,32.238 L138.16,32.238 L138.16,9.101" id="Fill-5" fill="#ADC95C"></path>
            <path d="M150.723,9.101 L153.683,9.101 L153.683,12.062 L153.769,12.062 C154.656,10.666 156.939,8.509 160.873,8.509 C163.707,8.509 166.077,9.228 168.19,11.343 C169.926,13.034 171.068,15.699 171.068,19.506 L171.068,32.238 L168.106,32.238 L168.106,19.506 C168.106,16.503 167.177,14.388 165.906,13.161 C164.301,11.597 162.186,11.173 160.873,11.173 C159.563,11.173 157.448,11.597 155.84,13.161 C154.572,14.388 153.641,16.503 153.683,19.506 L153.683,32.238 L150.723,32.238 L150.723,9.101" id="Fill-6" fill="#ADC95C"></path>
            <path d="M175.468,32.238 L178.428,32.238 L178.428,9.101 L175.468,9.101 L175.468,32.238 Z M175.468,6.266 L178.428,6.266 L178.428,0.937 L175.468,0.937 L175.468,6.266 Z" id="Fill-7" fill="#ADC95C"></path>
            <path d="M182.869,9.101 L185.831,9.101 L185.831,12.062 L185.915,12.062 C186.803,10.666 189.088,8.509 193.021,8.509 C195.855,8.509 198.224,9.228 200.338,11.343 C202.073,13.034 203.215,15.699 203.215,19.506 L203.215,32.238 L200.254,32.238 L200.254,19.506 C200.254,16.503 199.323,14.388 198.056,13.161 C196.448,11.597 194.332,11.173 193.021,11.173 C191.71,11.173 189.595,11.597 187.988,13.161 C186.719,14.388 185.789,16.503 185.831,19.506 L185.831,32.238 L182.869,32.238 L182.869,9.101" id="Fill-8" fill="#ADC95C"></path>
            <path d="M218.527,30.123 C224.66,30.123 227.706,24.624 227.706,20.69 C227.706,15.614 223.73,11.173 218.527,11.173 C213.282,11.173 209.391,15.614 209.391,20.69 C209.391,25.724 213.282,30.123 218.527,30.123 Z M230.498,28.6 C230.498,31.096 230.498,34.226 228.383,37.06 C225.465,41.121 220.136,41.332 219.205,41.332 C215.906,41.332 209.477,40.063 207.36,32.83 L210.492,32.83 C211.252,34.733 213.536,38.667 219.162,38.667 C223.053,38.667 227.537,36.425 227.537,30.039 L227.537,28.008 L227.452,28.008 C225.719,31.307 221.911,32.788 218.527,32.788 C212.438,32.788 206.432,28.05 206.432,20.774 C206.432,13.415 212.438,8.509 218.527,8.509 C220.644,8.509 224.787,9.143 227.452,13.246 L227.537,13.246 L227.537,9.101 L230.498,9.101 L230.498,28.6 Z" id="Fill-9" fill="#ADC95C"></path>
        </g>
    </g>
</svg>